<?xml version="1.0" encoding="UTF-8"?>
<svg version="1.1" xmlns="http://www.w3.org/2000/svg" width="1875" height="515">
<path d="M0 0 C8.25 0 16.5 0 25 0 C25.84820313 1.52625 26.69640625 3.0525 27.5703125 4.625 C35.33631556 18.56492521 43.25268734 32.40327858 51.33544922 46.16259766 C54.23350211 51.10263443 57.11627088 56.05159229 60 61 C62.79231124 57.6595838 65.06241595 54.34007358 67.14453125 50.51953125 C68.02588745 48.91464844 68.02588745 48.91464844 68.92504883 47.27734375 C69.54790771 46.13394531 70.1707666 44.99054688 70.8125 43.8125 C72.14243983 41.3900516 73.47690761 38.97011704 74.8125 36.55078125 C75.15380447 35.93200104 75.49510895 35.31322083 75.84675598 34.6756897 C79.59002272 27.90507767 83.44173705 21.19832481 87.3125 14.5 C87.95227783 13.39116455 88.59205566 12.2823291 89.2512207 11.13989258 C93.72140853 3.4178872 93.72140853 3.4178872 96 0 C98.50610352 -0.35644531 98.50610352 -0.35644531 101.62890625 -0.328125 C102.74587891 -0.32296875 103.86285156 -0.3178125 105.01367188 -0.3125 C106.18478516 -0.291875 107.35589844 -0.27125 108.5625 -0.25 C109.73748047 -0.24484375 110.91246094 -0.2396875 112.12304688 -0.234375 C120.84625547 -0.15374453 120.84625547 -0.15374453 122 1 C122.09591199 2.56887635 122.12187996 4.14207792 122.12025452 5.71388245 C122.12231651 7.2431134 122.12231651 7.2431134 122.12442017 8.80323792 C122.11902725 10.49500404 122.11902725 10.49500404 122.11352539 12.22094727 C122.11367142 13.40127533 122.11381744 14.58160339 122.1139679 15.79769897 C122.11338895 19.04342108 122.10835986 22.28910055 122.10139394 25.53481412 C122.09515962 28.92343032 122.09455654 32.31204728 122.09336853 35.70066833 C122.09025544 42.12155804 122.08204236 48.54243081 122.07201904 54.96331304 C122.0608572 62.27153825 122.05534727 69.57976424 122.05032361 76.88799584 C122.03985973 91.92534002 122.02226073 106.96266832 122 122 C118.541824 122.0868329 115.08392656 122.14033282 111.625 122.1875 C110.64015625 122.21263672 109.6553125 122.23777344 108.640625 122.26367188 C107.69960937 122.27333984 106.75859375 122.28300781 105.7890625 122.29296875 C104.91975098 122.3086792 104.05043945 122.32438965 103.15478516 122.34057617 C102.44370605 122.22818604 101.73262695 122.1157959 101 122 C98.57330717 118.35996076 98.73088613 115.7027485 98.77294922 111.49926758 C98.77265717 110.73805099 98.77236511 109.97683441 98.77206421 109.19255066 C98.77345757 106.67642824 98.78901893 104.16060194 98.8046875 101.64453125 C98.80841761 99.90004132 98.81126459 98.15554929 98.81326294 96.41105652 C98.82089955 91.81936866 98.84054829 87.22780731 98.8626709 82.63616943 C98.88312871 77.95082307 98.89226452 73.26545627 98.90234375 68.58007812 C98.92379415 59.38666317 98.95793045 50.1933421 99 41 C88.13097644 59.53899853 88.13097644 59.53899853 77.5625 78.25 C75.9307469 81.18985269 74.29639841 84.12776106 72.64501953 87.05664062 C71.47691354 89.14668007 70.33462092 91.25123947 69.21044922 93.36523438 C68.61377441 94.45642578 68.01709961 95.54761719 67.40234375 96.671875 C66.86988037 97.66799805 66.33741699 98.66412109 65.78881836 99.69042969 C64 102 64 102 61.28735352 102.83300781 C60.53252686 102.88811523 59.7777002 102.94322266 59 103 C52.94198467 93.4387873 47.30205106 83.64552728 41.66113281 73.83422852 C37.86276219 67.22805583 34.05084583 60.63091547 30.1875 54.0625 C29.78547363 53.37768555 29.38344727 52.69287109 28.96923828 51.98730469 C27.37184336 49.27712566 25.74561295 46.61841942 24 44 C23.67 69.74 23.34 95.48 23 122 C15.41 122 7.82 122 0 122 C0 81.74 0 41.48 0 0 Z " fill="#090909" transform="translate(1329,191)"/>
<path d="M0 0 C25 0 25 0 30.1875 4.6875 C31.71728516 7.71972656 31.71728516 7.71972656 33 11 C33.53028809 12.10053711 34.06057617 13.20107422 34.60693359 14.33496094 C35.66199622 16.5298766 36.67949509 18.74331636 37.65527344 20.97460938 C39.39715149 24.89351874 41.461823 28.55325282 43.625 32.25 C44.31499412 33.48631464 45.00377879 34.72330499 45.69140625 35.9609375 C49.04596886 41.90140337 52.62218191 47.71536904 56.19189453 53.52832031 C56.6867334 54.34139648 57.18157227 55.15447266 57.69140625 55.9921875 C58.35958374 57.08055908 58.35958374 57.08055908 59.04125977 58.19091797 C60 60 60 60 60 62 C63.00884451 59.20456599 65.04981162 56.50427742 67.03125 52.9140625 C67.58876953 51.91133301 68.14628906 50.90860352 68.72070312 49.87548828 C69.30787109 48.80282715 69.89503906 47.73016602 70.5 46.625 C71.41942383 44.96380127 71.41942383 44.96380127 72.35742188 43.26904297 C74.24633298 39.85038678 76.12471781 36.42614847 78 33 C78.56976562 31.96101563 79.13953125 30.92203125 79.7265625 29.8515625 C83.16601372 23.57578658 86.58548845 17.28937328 90 11 C91.98 7.37 93.96 3.74 96 0 C104.58 0 113.16 0 122 0 C122 40.26 122 80.52 122 122 C114.41 122 106.82 122 99 122 C98.67 95.93 98.34 69.86 98 43 C94.7 48.61 91.4 54.22 88 60 C83.3125 67.8125 83.3125 67.8125 81.08203125 71.5234375 C74.85568356 81.90353064 68.91077152 92.4383493 63 103 C60.77734375 102.94140625 60.77734375 102.94140625 58 102 C56.27424284 99.65062397 54.9303704 97.48580582 53.5625 94.9375 C52.6881607 93.38113906 51.8131198 91.82517213 50.9375 90.26953125 C50.46828125 89.42342285 49.9990625 88.57731445 49.515625 87.70556641 C46.76972532 82.80381702 43.90554852 77.97081217 41.0625 73.125 C35.01211089 62.76706115 29.0102665 52.38136941 23 42 C23 68.4 23 94.8 23 122 C15.41 122 7.82 122 0 122 C0 81.74 0 41.48 0 0 Z " fill="#070707" transform="translate(1486,191)"/>
<path d="M0 0 C17.2153289 -0.51938552 33.70688423 1.21805025 47.23291016 13.08691406 C53.4579106 20.43606809 55.76167037 28.22245168 55.47900391 37.76660156 C54.50645024 46.93639326 50.6836805 53.63614372 44.23291016 60.08691406 C44.83619141 60.53421875 45.43947266 60.98152344 46.06103516 61.44238281 C46.86025391 62.04695313 47.65947266 62.65152344 48.48291016 63.27441406 C49.27181641 63.86609375 50.06072266 64.45777344 50.87353516 65.06738281 C58.00996476 71.17588298 60.55697184 79.07032028 61.58837891 88.25097656 C61.84248459 97.61658618 60.04025 105.91960981 54.02587891 113.27050781 C44.43277467 122.98901211 30.6881667 126.02186708 17.42602539 126.34570312 C15.38122477 126.35867526 13.33632989 126.36057135 11.29150391 126.35253906 C10.20200943 126.35445251 9.11251495 126.35636597 7.99000549 126.3583374 C5.71021287 126.35968808 3.43041226 126.3560705 1.15063477 126.34765625 C-2.35140926 126.33684671 -5.85295119 126.34763736 -9.35498047 126.36035156 C-11.57698681 126.3590316 -13.79899284 126.3564726 -16.02099609 126.35253906 C-17.06985489 126.35658752 -18.11871368 126.36063599 -19.19935608 126.36480713 C-20.16473801 126.35850281 -21.13011993 126.35219849 -22.12475586 126.34570312 C-22.97538101 126.34411194 -23.82600616 126.34252075 -24.70240784 126.34088135 C-26.76708984 126.08691406 -26.76708984 126.08691406 -28.76708984 124.08691406 C-29.01877213 121.95670319 -29.01877213 121.95670319 -29.02105713 119.26623535 C-29.02669678 118.2482637 -29.03233643 117.23029205 -29.03814697 116.18147278 C-29.03409851 115.06036606 -29.03005005 113.93925934 -29.02587891 112.78417969 C-29.02938354 111.60691818 -29.03288818 110.42965668 -29.03649902 109.21672058 C-29.04380751 105.98328165 -29.04207431 102.7500057 -29.03574085 99.51656914 C-29.03068654 96.13689703 -29.03537071 92.757236 -29.03851318 89.37756348 C-29.0421545 83.70139605 -29.03734942 78.02528063 -29.02783203 72.34912109 C-29.01694713 65.78143029 -29.0204726 59.21386365 -29.03148484 52.64617586 C-29.04055304 47.01301906 -29.0418453 41.3798997 -29.0366075 35.74673796 C-29.03348521 32.37978803 -29.03308551 29.01289652 -29.03968048 25.64595032 C-29.04473608 21.89376319 -29.03704889 18.14181749 -29.02587891 14.38964844 C-29.02992737 13.26854172 -29.03397583 12.147435 -29.03814697 10.99235535 C-29.03250732 9.9743837 -29.02686768 8.95641205 -29.02105713 7.90759277 C-29.02030308 7.01973839 -29.01954903 6.131884 -29.01877213 5.21712494 C-28.76708984 3.08691406 -28.76708984 3.08691406 -26.76708984 1.08691406 C-24.63842773 0.76806641 -24.63842773 0.76806641 -21.98974609 0.67285156 C-21.01054199 0.63385742 -20.03133789 0.59486328 -19.02246094 0.5546875 C-17.44198975 0.50876465 -17.44198975 0.50876465 -15.82958984 0.46191406 C-14.75016113 0.42614258 -13.67073242 0.39037109 -12.55859375 0.35351562 C-8.37266408 0.22388206 -4.18585327 0.1314773 0 0 Z M-4.76708984 21.08691406 C-4.76708984 30.98691406 -4.76708984 40.88691406 -4.76708984 51.08691406 C-0.74521484 51.14878906 3.27666016 51.21066406 7.42041016 51.27441406 C8.68006592 51.30172607 9.93972168 51.32903809 11.23754883 51.35717773 C12.24019775 51.36467041 13.24284668 51.37216309 14.27587891 51.37988281 C15.80764771 51.40344849 15.80764771 51.40344849 17.37036133 51.42749023 C22.50186647 50.81696148 25.9048419 47.89042065 29.23291016 44.08691406 C30.9585667 38.90994442 31.1062629 33.31881553 29.10791016 28.21191406 C25.42047148 24.0328169 21.69079303 21.91263417 16.23291016 21.08691406 C14.54033771 21.00991121 12.84517017 20.97886339 11.15087891 20.98925781 C10.31065186 20.99175537 9.4704248 20.99425293 8.60473633 20.99682617 C7.55390869 21.00593018 6.50308105 21.01503418 5.42041016 21.02441406 C2.05853516 21.04503906 -1.30333984 21.06566406 -4.76708984 21.08691406 Z M-5.76708984 71.08691406 C-5.43708984 81.97691406 -5.10708984 92.86691406 -4.76708984 104.08691406 C6.87010332 106.20276737 19.45168305 108.14922596 30.32666016 101.87988281 C33.69045393 99.15092266 36.05050174 96.52506042 36.60400391 92.16113281 C36.99041676 84.9553303 36.99041676 84.9553303 34.29541016 78.52441406 C27.53635193 73.14475547 20.30422778 70.94126424 11.71337891 70.98925781 C10.79194092 70.99175537 9.87050293 70.99425293 8.92114258 70.99682617 C7.76590088 71.00593018 6.61065918 71.01503418 5.42041016 71.02441406 C1.72853516 71.04503906 -1.96333984 71.06566406 -5.76708984 71.08691406 Z " fill="#101010" transform="translate(833.76708984375,193.9130859375)"/>
<path d="M0 0 C4.33639915 0.2028792 7.1126574 0.71938662 10.40942383 3.65307617 C14.89332404 9.21606307 18.28946211 15.43412397 21.61157227 21.73999023 C23.55789694 25.42550436 25.70884615 28.95873493 27.8894043 32.50805664 C28.58991061 33.69219173 29.28913504 34.87708611 29.98706055 36.06274414 C32.32738276 39.99118096 34.82482402 43.80549117 37.3269043 47.63305664 C44.13322683 58.17187862 50.61634305 68.91659887 57.1394043 79.63305664 C57.4694043 53.89305664 57.7994043 28.15305664 58.1394043 1.63305664 C65.0694043 1.63305664 71.9994043 1.63305664 79.1394043 1.63305664 C80.1394043 2.63305664 80.1394043 2.63305664 80.26245213 4.64580631 C80.26153033 5.53718013 80.26060854 6.42855394 80.25965881 7.34693909 C80.26172081 8.87617004 80.26172081 8.87617004 80.26382446 10.43629456 C80.25843155 12.12806068 80.25843155 12.12806068 80.25292969 13.85400391 C80.25307571 15.03433197 80.25322174 16.21466003 80.25337219 17.43075562 C80.25279325 20.67647772 80.24776416 23.92215719 80.24079823 27.16787076 C80.23456392 30.55648696 80.23396084 33.94510392 80.23277283 37.33372498 C80.22965974 43.75461469 80.22144666 50.17548745 80.21142334 56.59636968 C80.2002615 63.90459489 80.19475157 71.21282088 80.1897279 78.52105248 C80.17926403 93.55839666 80.16166503 108.59572496 80.1394043 123.63305664 C76.7403047 123.80604986 73.34233936 123.91114187 69.94018555 124.00415039 C68.97890747 124.05390015 68.01762939 124.1036499 67.02722168 124.15490723 C60.03317888 124.29850655 60.03317888 124.29850655 57.42969704 122.36011314 C55.24874728 119.70422019 53.67682618 116.72988592 52.4128418 113.54711914 C49.75030149 107.47390752 46.08146325 102.10107056 42.4519043 96.57055664 C41.05916921 94.40785154 39.6685542 92.24377973 38.2800293 90.07836914 C37.58973633 89.00490234 36.89944336 87.93143555 36.18823242 86.82543945 C32.47164844 81.03444182 28.78422156 75.22491356 25.09570312 69.41601562 C20.47024822 62.13742098 15.80314522 54.88776474 11.1394043 47.63305664 C10.8094043 72.71305664 10.4794043 97.79305664 10.1394043 123.63305664 C2.5494043 123.63305664 -5.0405957 123.63305664 -12.8605957 123.63305664 C-12.883143 107.873886 -12.90157503 92.11472807 -12.91240788 76.355546 C-12.91757077 69.03878262 -12.92461333 61.72202995 -12.93603516 54.40527344 C-12.94598221 48.03022646 -12.95244918 41.65518723 -12.9546842 35.28013271 C-12.95599127 31.9025765 -12.95907689 28.52504248 -12.96632576 25.14749336 C-12.97353183 21.38298321 -12.97458683 17.61851979 -12.97412109 13.85400391 C-12.97951401 12.16223778 -12.97951401 12.16223778 -12.98501587 10.43629456 C-12.9836412 9.41680725 -12.98226654 8.39731995 -12.98085022 7.34693909 C-12.98177201 6.45556527 -12.98269381 5.56419146 -12.98364353 4.64580631 C-12.65948969 -0.65652642 -4.07478441 0.19819344 0 0 Z " fill="#0C0C0C" transform="translate(1785.860595703125,189.366943359375)"/>
<path d="M0 0 C0.89571213 -0.00960754 1.79142426 -0.01921509 2.71427917 -0.02911377 C3.69326675 -0.03336365 4.67225433 -0.03761353 5.6809082 -0.04199219 C7.1938018 -0.0505423 7.1938018 -0.0505423 8.73725891 -0.05926514 C10.88521266 -0.06874102 13.03318113 -0.07525932 15.18115234 -0.07910156 C18.42287995 -0.08869318 21.66394212 -0.11964292 24.90551758 -0.15136719 C40.98021461 -0.2343021 58.0735132 -0.20760569 70.60668945 11.41113281 C79.26177553 20.90314938 81.17747666 31.1806102 80.66918945 43.78613281 C79.77301933 53.64400414 77.36219597 60.28564887 70.2824707 67.27441406 C66.68998453 69.99838709 62.77037523 72.05150529 58.79418945 74.16113281 C59.17115967 74.77931885 59.54812988 75.39750488 59.93652344 76.03442383 C76.32445607 102.91522367 76.32445607 102.91522367 81.79418945 112.16113281 C82.16640625 112.77214844 82.53862305 113.38316406 82.92211914 114.01269531 C85.79418945 118.82548974 85.79418945 118.82548974 85.79418945 122.16113281 C76.88418945 122.16113281 67.97418945 122.16113281 58.79418945 122.16113281 C57.09262695 118.69613281 57.09262695 118.69613281 55.35668945 115.16113281 C50.51322347 105.40970192 45.21463312 95.92785247 39.66918945 86.55957031 C39.02981445 85.47933594 38.39043945 84.39910156 37.73168945 83.28613281 C36.87897461 81.866875 36.87897461 81.866875 36.0090332 80.41894531 C34.79418945 78.16113281 34.79418945 78.16113281 34.79418945 76.16113281 C28.85418945 76.16113281 22.91418945 76.16113281 16.79418945 76.16113281 C16.79418945 91.34113281 16.79418945 106.52113281 16.79418945 122.16113281 C9.53418945 122.16113281 2.27418945 122.16113281 -5.20581055 122.16113281 C-5.22892975 106.40196484 -5.24678988 90.64280283 -5.25762272 74.88362217 C-5.26278561 67.56685879 -5.26982817 60.25010612 -5.28125 52.93334961 C-5.29119705 46.55830263 -5.29766402 40.18326341 -5.29989904 33.80820888 C-5.30120611 30.43065267 -5.30429173 27.05311865 -5.3115406 23.67556953 C-5.31874667 19.91105938 -5.31980167 16.14659596 -5.31933594 12.38208008 C-5.32472885 10.69031395 -5.32472885 10.69031395 -5.33023071 8.96437073 C-5.32885605 7.94488342 -5.32748138 6.92539612 -5.32606506 5.87501526 C-5.32698686 4.98364144 -5.32790865 4.09226763 -5.32885838 3.17388248 C-5.10220366 -0.53361253 -3.25285422 0.02809668 0 0 Z M16.79418945 21.16113281 C17.12418945 32.38113281 17.45418945 43.60113281 17.79418945 55.16113281 C34.48154242 56.83986747 34.48154242 56.83986747 50.29418945 52.34863281 C55.14767648 48.10183166 56.47195538 44.11372493 56.9152832 37.79394531 C56.68322619 32.74857677 55.07019282 28.23717723 51.2824707 24.78222656 C40.92002618 18.23625345 28.30911944 20.00963981 16.79418945 21.16113281 Z " fill="#0C0C0C" transform="translate(1085.205810546875,190.8388671875)"/>
<path d="M0 0 C8.25 0 16.5 0 25 0 C25.01981934 2.49747803 25.03963867 4.99495605 25.06005859 7.56811523 C25.12712276 15.84230233 25.20475963 24.11636627 25.28752708 32.39041042 C25.33736116 37.40437011 25.38369192 42.41831003 25.421875 47.43237305 C25.45889113 52.27595998 25.50529446 57.11937622 25.55806351 61.96281624 C25.57652101 63.80583753 25.59166047 65.64889529 25.60334396 67.49197197 C25.62035529 70.08393513 25.64942435 72.67551469 25.68115234 75.26733398 C25.68331253 76.02043854 25.68547272 76.77354309 25.68769836 77.54946899 C25.79438349 84.42221405 26.37947577 92.6093884 31 98 C39.29171009 103.21546797 47.32481796 103.76466861 57 103 C62.72071876 101.5195327 66.93408217 99.18847634 70 94 C72.53396391 88.17145818 73.44406794 83.51620356 73.43237305 77.19726562 C73.4425647 76.35729034 73.45275635 75.51731506 73.46325684 74.65188599 C73.49320854 71.90327124 73.50262529 69.155006 73.51171875 66.40625 C73.52857868 64.48953103 73.54673068 62.57282302 73.56611633 60.65612793 C73.61347976 55.63223702 73.64337734 50.6083906 73.66955566 45.58435059 C73.69943027 40.44937355 73.74593683 35.31454958 73.79101562 30.1796875 C73.87689342 20.11985443 73.94276884 10.06003688 74 0 C82.25 0 90.5 0 99 0 C99.09069868 11.51001113 99.1639445 23.01978135 99.20724869 34.5300703 C99.22804209 39.87589582 99.25620769 45.22146223 99.30175781 50.56713867 C99.34551141 55.73485643 99.36919898 60.90232639 99.37950897 66.07021523 C99.3868477 68.03280851 99.40117719 69.99538964 99.42292023 71.95787621 C99.58452219 87.16105822 99.09555038 100.38618612 88 112 C87.19755859 112.84498047 87.19755859 112.84498047 86.37890625 113.70703125 C76.03735312 123.50298685 60.91355807 126.38701043 47.12109375 126.21484375 C32.46749763 125.20614815 19.0194037 121.11242956 9 110 C-0.71614539 97.35161636 -0.56736844 80.85228921 -0.390625 65.72265625 C-0.3831448 63.81595967 -0.37746031 61.9092553 -0.37347412 60.00254822 C-0.35835758 55.03604094 -0.31920008 50.07001761 -0.2746582 45.10369873 C-0.23340008 40.01516258 -0.21539853 34.92654659 -0.1953125 29.83789062 C-0.15268905 19.89168257 -0.08245748 9.94595764 0 0 Z " fill="#0E0E0E" transform="translate(923,195)"/>
<path d="M0 0 C0.95310059 0.01047363 1.90620117 0.02094727 2.88818359 0.03173828 C4.43505859 0.04140625 4.43505859 0.04140625 6.01318359 0.05126953 C7.63353516 0.07640625 7.63353516 0.07640625 9.28662109 0.10205078 C10.37458984 0.11107422 11.46255859 0.12009766 12.58349609 0.12939453 C15.27642261 0.15301669 17.96891365 0.18595522 20.66162109 0.22705078 C23.31308932 6.70936851 25.76517179 13.22776022 28.03662109 19.85205078 C30.34250769 26.51363774 32.73315195 33.12631664 35.24658203 39.71240234 C38.14431897 47.38512236 40.77231844 55.15350007 43.41503906 62.91699219 C45.33857322 68.53706463 47.37083184 74.0734414 49.61230469 79.57373047 C51.7774239 85.04848981 53.69776941 90.61518202 55.66162109 96.16455078 C56.51548671 98.5696056 57.36964948 100.97455494 58.22412109 103.37939453 C58.63146484 104.53165527 59.03880859 105.68391602 59.45849609 106.87109375 C60.24281886 109.05885769 61.04413726 111.24062549 61.86474609 113.41503906 C62.23083984 114.38554199 62.59693359 115.35604492 62.97412109 116.35595703 C63.30025391 117.20359619 63.62638672 118.05123535 63.96240234 118.92456055 C64.66162109 121.22705078 64.66162109 121.22705078 64.66162109 125.22705078 C56.08162109 125.22705078 47.50162109 125.22705078 38.66162109 125.22705078 C35.84912109 117.22705078 35.84912109 117.22705078 34.98266602 114.75830078 C34.74652588 114.08798828 34.51038574 113.41767578 34.26708984 112.72705078 C34.03143311 112.05673828 33.79577637 111.38642578 33.55297852 110.69580078 C32.28869885 107.19418589 30.96880561 103.71287616 29.66162109 100.22705078 C7.88162109 99.73205078 7.88162109 99.73205078 -14.33837891 99.22705078 C-15.82337891 105.66205078 -15.82337891 105.66205078 -17.33837891 112.22705078 C-18.00273032 114.49042731 -18.69757139 116.74595801 -19.46337891 118.97705078 C-19.79595703 119.96189453 -20.12853516 120.94673828 -20.47119141 121.96142578 C-21.33837891 124.22705078 -21.33837891 124.22705078 -22.33837891 125.22705078 C-24.19207502 125.31442723 -26.04905431 125.33403231 -27.90478516 125.32470703 C-29.02949219 125.32148438 -30.15419922 125.31826172 -31.31298828 125.31494141 C-32.49699219 125.3065625 -33.68099609 125.29818359 -34.90087891 125.28955078 C-36.08875 125.28503906 -37.27662109 125.28052734 -38.50048828 125.27587891 C-41.44650117 125.26404753 -44.39241571 125.24756365 -47.33837891 125.22705078 C-48.51423301 121.69948847 -48.1367305 121.02497633 -46.81884766 117.66845703 C-46.46129395 116.7401709 -46.10374023 115.81188477 -45.73535156 114.85546875 C-45.33622559 113.84371582 -44.93709961 112.83196289 -44.52587891 111.78955078 C-43.68136307 109.59633551 -42.83899779 107.40229122 -41.99853516 105.20751953 C-41.55783691 104.05944824 -41.11713867 102.91137695 -40.66308594 101.72851562 C-38.51430374 96.04885578 -36.48924113 90.32646834 -34.46337891 84.60205078 C-29.19701977 69.76988435 -23.77918939 54.99589878 -18.33837891 40.22705078 C-17.67036468 38.41196335 -17.00239123 36.59686091 -16.33447266 34.78173828 C-15.48136875 32.46345047 -14.62755221 30.14544734 -13.77050781 27.82861328 C-12.30507664 23.86615865 -10.85753059 19.89800736 -9.42822266 15.92236328 C-9.11014648 15.04346436 -8.79207031 14.16456543 -8.46435547 13.2590332 C-7.85366511 11.57073807 -7.24731101 9.88086602 -6.64599609 8.18920898 C-3.80740932 0.36968998 -3.80740932 0.36968998 0 0 Z M7.66162109 30.22705078 C7.27828613 31.4376416 6.89495117 32.64823242 6.5 33.89550781 C5.07288295 38.40199953 3.64517215 42.90830296 2.21728516 47.41455078 C1.60026198 49.36209087 0.9833982 51.30968146 0.36669922 53.25732422 C-0.52154965 56.06247145 -1.41037821 58.86743443 -2.29931641 61.67236328 C-2.57335297 62.53822052 -2.84738953 63.40407776 -3.12973022 64.2961731 C-3.51990829 65.52676956 -3.51990829 65.52676956 -3.91796875 66.78222656 C-4.14447113 67.49726349 -4.37097351 68.21230042 -4.6043396 68.94900513 C-5.49557956 71.71491331 -6.41943621 74.4702227 -7.33837891 77.22705078 C2.89162109 77.22705078 13.12162109 77.22705078 23.66162109 77.22705078 C20.36278206 64.7216669 20.36278206 64.7216669 16.22802734 52.48486328 C14.30187151 47.40773541 12.89073809 42.20358361 11.46826172 36.96728516 C10.92283492 35.03691883 10.2984774 33.12921234 9.66162109 31.22705078 C9.00162109 30.89705078 8.34162109 30.56705078 7.66162109 30.22705078 Z " fill="#0F0F0F" transform="translate(66.33837890625,191.77294921875)"/>
<path d="M0 0 C0.98484375 -0.00128906 1.9696875 -0.00257813 2.984375 -0.00390625 C4.02078125 -0.00003906 5.0571875 0.00382813 6.125 0.0078125 C7.67960937 0.00201172 7.67960937 0.00201172 9.265625 -0.00390625 C10.25046875 -0.00261719 11.2353125 -0.00132812 12.25 0 C13.16007812 0.00112793 14.07015625 0.00225586 15.0078125 0.00341797 C17.125 0.1328125 17.125 0.1328125 18.125 1.1328125 C18.23415007 3.69641538 18.27922591 6.2340652 18.28271484 8.79858398 C18.29033592 10.00365852 18.29033592 10.00365852 18.29811096 11.233078 C18.30884168 12.98515659 18.31745118 14.73724912 18.32423019 16.48934746 C18.33600081 19.26885533 18.35545334 22.04820651 18.37734985 24.82765198 C18.43899561 32.73327348 18.49284267 40.63888321 18.52636719 48.54467773 C18.54741019 53.37649466 18.58280146 58.20803308 18.62712479 63.03969002 C18.6412217 64.87629967 18.64999287 66.71295869 18.65317917 68.54961967 C18.1057631 83.97690618 18.1057631 83.97690618 24.1875 97.5703125 C32.38326164 101.92976018 40.96861144 103.65756386 50.05859375 101.40625 C55.37462186 99.66953962 59.33922664 98.24006365 62.125 93.1328125 C64.5950532 87.39631336 65.56659378 82.84852638 65.54150391 76.63720703 C65.55008926 75.82970505 65.55867462 75.02220306 65.56752014 74.19023132 C65.59240693 71.54860488 65.59694235 68.90735754 65.6015625 66.265625 C65.61588454 64.42095812 65.63164371 62.57630188 65.64877319 60.73165894 C65.69048411 55.89593612 65.71557927 51.0602794 65.73626709 46.22442627 C65.77219332 38.46356166 65.8329895 30.70285962 65.89475632 22.94216537 C65.91386555 20.23106682 65.92557805 17.52001202 65.93618774 14.80886841 C65.94639462 13.15659488 65.95675209 11.50432227 65.96728516 9.85205078 C65.96832748 9.09569839 65.96936981 8.33934601 65.97044373 7.56007385 C66.01157059 2.35967132 66.01157059 2.35967132 67.125 0.1328125 C70.93748426 0.10394014 74.7499407 0.08605758 78.5625 0.0703125 C79.65111328 0.06193359 80.73972656 0.05355469 81.86132812 0.04492188 C82.89580078 0.04169922 83.93027344 0.03847656 84.99609375 0.03515625 C85.95443115 0.02991943 86.91276855 0.02468262 87.90014648 0.01928711 C90.125 0.1328125 90.125 0.1328125 91.125 1.1328125 C91.24677724 3.76156371 91.30362277 6.36449896 91.31787109 8.99462891 C91.33013733 10.23154732 91.33013733 10.23154732 91.34265137 11.49345398 C91.3675863 14.24042025 91.38405493 16.987334 91.3984375 19.734375 C91.40376118 20.6745686 91.40908485 21.61476219 91.41456985 22.5834465 C91.44135499 27.57385188 91.46069998 32.56423196 91.47509766 37.5546875 C91.49162671 42.67758647 91.53628842 47.7998271 91.5874691 52.92247963 C91.62138936 56.8845785 91.63270283 60.84652719 91.63832474 64.80875778 C91.6449848 66.69434935 91.66006752 68.57993293 91.68421555 70.46538162 C91.86456933 85.41827583 90.75459937 99.28385795 80.359375 111.046875 C67.07091511 123.45253511 50.2260738 123.83925106 33.06640625 123.30761719 C21.26346859 122.60618099 11.30518951 118.5475443 3.06640625 109.99609375 C-1.0282254 105.11828931 -3.40875278 100.31360846 -4.875 94.1328125 C-5.04780487 93.44165344 -5.22060974 92.75049438 -5.39865112 92.03839111 C-6.02964616 88.1895195 -6.01419219 84.39113806 -6.00439453 80.50292969 C-6.00614685 79.64549164 -6.00789917 78.78805359 -6.00970459 77.90463257 C-6.01409472 75.07963011 -6.01119615 72.25469056 -6.0078125 69.4296875 C-6.00848611 67.46624744 -6.00945661 65.50280745 -6.01071167 63.53936768 C-6.01218458 59.43053389 -6.01004619 55.32172188 -6.00537109 51.21289062 C-5.99965901 45.93431248 -6.00296471 40.65578502 -6.00894356 35.37720871 C-6.01254732 31.32647312 -6.0114117 27.27574967 -6.00881577 23.22501373 C-6.00814676 21.27766158 -6.008974 19.33030834 -6.01129532 17.38295746 C-6.01382043 14.67031405 -6.00998395 11.95775432 -6.00439453 9.24511719 C-6.00641876 8.4337027 -6.00844299 7.62228821 -6.01052856 6.7862854 C-5.98450711 0.00741706 -5.98450711 0.00741706 0 0 Z " fill="#0D0D0D" transform="translate(1204.875,190.8671875)"/>
<path d="M0 0 C0.9583374 0.00523682 1.9166748 0.01047363 2.90405273 0.01586914 C4.45576172 0.02070313 4.45576172 0.02070313 6.03881836 0.02563477 C7.12743164 0.03401367 8.21604492 0.04239258 9.33764648 0.05102539 C10.97636719 0.05779297 10.97636719 0.05779297 12.64819336 0.06469727 C15.35723144 0.07652713 18.06616248 0.09300996 20.77514648 0.11352539 C24.15563846 7.83988115 26.99755516 15.60302858 29.61352539 23.61474609 C31.15514102 28.31543452 32.83446282 32.90527671 34.72827148 37.47680664 C36.37200386 41.61680424 37.81357714 45.82762096 39.28295898 50.03173828 C41.39943666 56.07666572 43.57815064 62.09743318 45.77514648 68.11352539 C48.41205207 75.3381371 51.01223499 82.57336827 53.54760742 89.83422852 C54.86697868 93.59614656 56.2264684 97.33937323 57.63061523 101.07055664 C57.94571045 101.91078369 58.26080566 102.75101074 58.58544922 103.61669922 C59.19036719 105.2239988 59.80017402 106.82947128 60.41601562 108.43261719 C62.35403985 113.58703242 63.71808124 118.71003777 64.77514648 124.11352539 C61.9445785 125.05704805 60.1805028 125.24218602 57.24780273 125.24633789 C56.37317383 125.24762695 55.49854492 125.24891602 54.59741211 125.25024414 C53.68668945 125.24637695 52.7759668 125.24250977 51.83764648 125.23852539 C50.93079102 125.24239258 50.02393555 125.24625977 49.08959961 125.25024414 C47.77572266 125.24831055 47.77572266 125.24831055 46.43530273 125.24633789 C45.63745361 125.24520996 44.83960449 125.24408203 44.01757812 125.24291992 C39.72786933 124.99539182 39.72786933 124.99539182 37.77514648 124.11352539 C36.6784668 121.796875 36.6784668 121.796875 35.85327148 118.76586914 C35.57902344 117.79383545 35.30477539 116.82180176 35.0222168 115.8203125 C34.69318359 114.57644775 34.36415039 113.33258301 34.02514648 112.05102539 C32.95264648 108.11165039 31.88014648 104.17227539 30.77514648 100.11352539 C15.92514648 99.78352539 1.07514648 99.45352539 -14.22485352 99.11352539 C-14.88485352 102.41352539 -15.54485352 105.71352539 -16.22485352 109.11352539 C-17.05502535 111.85560812 -17.90288952 114.54077911 -18.84985352 117.23852539 C-19.07930664 117.90883789 -19.30875977 118.57915039 -19.54516602 119.26977539 C-20.09940608 120.88630891 -20.66127366 122.50022429 -21.22485352 124.11352539 C-26.17355869 125.10483994 -30.89141979 125.26451815 -35.91235352 125.23852539 C-36.6709668 125.24239258 -37.42958008 125.24625977 -38.21118164 125.25024414 C-41.47261742 125.24448697 -44.109991 125.1518129 -47.22485352 124.11352539 C-46.56497387 118.47885753 -44.6766997 113.50978314 -42.68969727 108.23852539 C-42.33275284 107.27817383 -41.97580841 106.31782227 -41.60804749 105.32836914 C-40.46453095 102.2548452 -39.3137062 99.1841214 -38.16235352 96.11352539 C-37.04254638 93.11280169 -35.924278 90.11150768 -34.80612183 87.11016846 C-34.06025962 85.1081677 -33.31394011 83.10633726 -32.56716919 81.10467529 C-26.87399644 65.8310351 -21.29508369 50.52072866 -16.02954102 35.09399414 C-14.21881743 29.83391696 -12.27784599 24.65569244 -10.18432617 19.50170898 C-8.44432093 15.1707341 -6.85444906 10.78333854 -5.25024414 6.40063477 C-2.93533368 0.14977836 -2.93533368 0.14977836 0 0 Z M7.77514648 30.11352539 C7.40546753 31.35888062 7.40546753 31.35888062 7.02832031 32.62939453 C5.88397681 36.4790355 4.73672725 40.32779625 3.58764648 44.17602539 C3.38261505 44.86314606 3.17758362 45.55026672 2.96633911 46.25820923 C0.32593671 55.09551416 -2.38209604 63.89317335 -5.44750977 72.59399414 C-6.37226076 75.15184904 -6.37226076 75.15184904 -6.22485352 78.11352539 C3.67514648 78.11352539 13.57514648 78.11352539 23.77514648 78.11352539 C23.10840685 73.44634793 22.58446654 70.05383804 21.10327148 65.77758789 C20.77069336 64.80305664 20.43811523 63.82852539 20.09545898 62.82446289 C19.74225586 61.80610352 19.38905273 60.78774414 19.02514648 59.73852539 C15.68321133 49.92910423 12.59320826 40.08512858 9.77514648 30.11352539 C9.11514648 30.11352539 8.45514648 30.11352539 7.77514648 30.11352539 Z " fill="#0C0C0C" transform="translate(712.224853515625,193.886474609375)"/>
<path d="M0 0 C4.03334543 8.57699248 7.13150341 17.45777818 10.3125 26.375 C11.19393065 28.83427921 12.0765596 31.29312595 12.95933533 33.75192261 C13.53494626 35.35524629 14.11019704 36.95869933 14.68507385 38.56228638 C16.61031129 43.92938398 18.56921204 49.28278422 20.5625 54.625 C28.73159698 76.61552267 36.32838656 98.83220497 44 121 C43 122 43 122 40.59155273 122.11352539 C39.54942627 122.10828857 38.5072998 122.10305176 37.43359375 122.09765625 C36.30888672 122.09443359 35.18417969 122.09121094 34.02539062 122.08789062 C32.84138672 122.07951172 31.65738281 122.07113281 30.4375 122.0625 C29.24962891 122.05798828 28.06175781 122.05347656 26.83789062 122.04882812 C23.89187774 122.03699675 20.94596319 122.02051287 18 122 C13.70588507 111.55968405 13.70588507 111.55968405 12.3125 106.1875 C11.96638672 104.87845703 11.96638672 104.87845703 11.61328125 103.54296875 C11.01047685 101.04344222 10.50425139 98.52125694 10 96 C-4.52 96.33 -19.04 96.66 -34 97 C-35.65 102.28 -37.3 107.56 -39 113 C-39.99 115.97 -40.98 118.94 -42 122 C-50.58 122 -59.16 122 -68 122 C-67.19772581 117.18635489 -66.34854768 114.05726132 -64.5 109.6875 C-61.66049694 102.82375391 -59.1166732 95.87181432 -56.625 88.875 C-53.81910768 81.00472808 -50.94841712 73.16914418 -47.9375 65.375 C-44.74837582 57.10950427 -41.81156756 48.77342872 -38.93603516 40.39428711 C-36.59641469 33.61469197 -34.08636385 26.92229709 -31.44873047 20.25366211 C-28.80357785 13.55768676 -26.37148446 6.7975269 -24 0 C-15.88611956 -1.21521251 -8.14648632 -0.76299944 0 0 Z M-12 29 C-15.51831822 37.22132414 -18.27026164 45.66540886 -21.00146484 54.17089844 C-21.75783701 56.52438522 -22.52114859 58.87554469 -23.28515625 61.2265625 C-23.7686385 62.72382622 -24.25172625 64.22121739 -24.734375 65.71875 C-24.96243835 66.42076538 -25.19050171 67.12278076 -25.42547607 67.84606934 C-26.60013141 71.35277016 -26.60013141 71.35277016 -27 75 C-22.56251365 75.02896822 -18.12505153 75.04678788 -13.6875 75.0625 C-11.79354492 75.07506836 -11.79354492 75.07506836 -9.86132812 75.08789062 C-8.65283203 75.09111328 -7.44433594 75.09433594 -6.19921875 75.09765625 C-5.08377686 75.10289307 -3.96833496 75.10812988 -2.8190918 75.11352539 C0.08052062 75.12749254 0.08052062 75.12749254 3 74 C0.73536311 66.37761804 -1.60320138 58.77888322 -3.96166992 51.18505859 C-4.56575716 49.23950984 -5.16865811 47.29359604 -5.77148438 45.34765625 C-6.15755859 44.10371094 -6.54363281 42.85976562 -6.94140625 41.578125 C-7.28888916 40.45825195 -7.63637207 39.33837891 -7.99438477 38.18457031 C-8.96469207 35.11181274 -9.97213507 32.05393101 -11 29 C-11.33 29 -11.66 29 -12 29 Z " fill="#0C0C0C" transform="translate(1703,191)"/>
<path d="M0 0 C0.72030396 -0.00175232 1.44060791 -0.00350464 2.18273926 -0.00531006 C4.57497534 -0.00972835 6.9671381 -0.00679068 9.359375 -0.00341797 C11.01464858 -0.00409101 12.66992207 -0.00506105 14.32519531 -0.00631714 C17.79883767 -0.00779408 21.27245437 -0.00563968 24.74609375 -0.00097656 C29.20869998 0.00472073 33.67124608 0.0014417 38.1338501 -0.00454903 C41.5532273 -0.00815474 44.97259015 -0.00701601 48.39196777 -0.00442123 C50.03788256 -0.00375199 51.68379863 -0.00458029 53.32971191 -0.00690079 C55.62609331 -0.00942749 57.92237599 -0.0055865 60.21875 0 C61.52811523 0.00079559 62.83748047 0.00159119 64.18652344 0.00241089 C67.109375 0.12939453 67.109375 0.12939453 68.109375 1.12939453 C68.19623103 2.69112198 68.21639719 4.25668797 68.20703125 5.82080078 C68.20219727 7.2371582 68.20219727 7.2371582 68.19726562 8.68212891 C68.18469727 10.17196289 68.18469727 10.17196289 68.171875 11.69189453 C68.16736328 12.68898437 68.16285156 13.68607422 68.15820312 14.71337891 C68.14637507 17.18544302 68.12989349 19.65738971 68.109375 22.12939453 C61.64128372 23.02154505 55.3725098 23.18245958 48.84667969 23.13330078 C42.63687105 23.12681026 36.4385795 23.38665063 30.234375 23.62939453 C25.903125 23.79439453 21.571875 23.95939453 17.109375 24.12939453 C17.109375 33.03939453 17.109375 41.94939453 17.109375 51.12939453 C20.20183594 51.11779297 23.29429687 51.10619141 26.48046875 51.09423828 C29.46231992 51.08644852 32.44416997 51.0803713 35.42602539 51.07446289 C37.50480656 51.06942165 39.58358416 51.06258879 41.66235352 51.05395508 C44.64340086 51.04188031 47.62440149 51.03616429 50.60546875 51.03173828 C52.00858559 51.02399635 52.00858559 51.02399635 53.44004822 51.01609802 C54.30086502 51.01602249 55.16168182 51.01594696 56.04858398 51.01586914 C56.81025375 51.01364853 57.57192352 51.01142792 58.35667419 51.00914001 C60.109375 51.12939453 60.109375 51.12939453 61.109375 52.12939453 C61.20797631 53.53288188 61.24016437 54.9411993 61.2421875 56.34814453 C61.24347656 57.19763672 61.24476563 58.04712891 61.24609375 58.92236328 C61.24222656 59.81568359 61.23835938 60.70900391 61.234375 61.62939453 C61.23824219 62.52271484 61.24210937 63.41603516 61.24609375 64.33642578 C61.24480469 65.18591797 61.24351562 66.03541016 61.2421875 66.91064453 C61.24105957 67.69503906 61.23993164 68.47943359 61.23876953 69.28759766 C61.109375 71.12939453 61.109375 71.12939453 60.109375 72.12939453 C58.75953752 72.25124596 57.40362799 72.30706284 56.04858398 72.3347168 C55.18776718 72.35466202 54.32695038 72.37460724 53.44004822 72.39515686 C52.50463699 72.41186935 51.56922577 72.42858185 50.60546875 72.44580078 C49.65245377 72.46658188 48.69943878 72.48736298 47.71754456 72.5087738 C44.6607309 72.5743763 41.60382844 72.63320371 38.546875 72.69189453 C36.47980837 72.73506959 34.41275086 72.77868354 32.34570312 72.82275391 C27.26701692 72.93089789 22.18826739 73.02989143 17.109375 73.12939453 C17.109375 83.02939453 17.109375 92.92939453 17.109375 103.12939453 C33.939375 103.12939453 50.769375 103.12939453 68.109375 103.12939453 C68.109375 110.05939453 68.109375 116.98939453 68.109375 124.12939453 C58.347861 124.15194646 48.58636417 124.17031014 38.82483006 124.1812067 C34.29263406 124.18643531 29.76045673 124.19353254 25.22827148 124.20483398 C20.8581467 124.21566367 16.48803992 124.22167154 12.11790276 124.22427177 C10.44686537 124.22612588 8.77582903 124.22974621 7.10479927 124.23512459 C4.77239949 124.24233612 2.44007507 124.24338543 0.10766602 124.24291992 C-0.5900441 124.2465152 -1.28775421 124.25011047 -2.00660706 124.2538147 C-6.77657284 124.24344669 -6.77657284 124.24344669 -7.890625 123.12939453 C-7.98873635 121.55016724 -8.01694392 119.9665492 -8.01760864 118.38427734 C-8.02042847 117.35782104 -8.02324829 116.33136475 -8.02615356 115.27380371 C-8.02412933 114.13817993 -8.0221051 113.00255615 -8.02001953 111.83251953 C-8.02264801 110.04980652 -8.02264801 110.04980652 -8.02532959 108.2310791 C-8.0289877 104.96256677 -8.02811472 101.69409465 -8.0249505 98.42558289 C-8.02242647 95.0120739 -8.02476456 91.59856768 -8.02633667 88.18505859 C-8.02815824 82.45165522 -8.02575239 76.71826471 -8.02099609 70.98486328 C-8.01555349 64.34733677 -8.01731616 57.70984098 -8.0228225 51.07231522 C-8.02735399 45.38315187 -8.028004 39.69399779 -8.02538383 34.00483322 C-8.02382126 30.60270433 -8.02362675 27.20058989 -8.02692032 23.79846191 C-8.02944509 20.00770965 -8.02560871 16.2170173 -8.02001953 12.42626953 C-8.02204376 11.29064575 -8.02406799 10.15502197 -8.02615356 8.98498535 C-8.02333374 7.95852905 -8.02051392 6.93207275 -8.01760864 5.87451172 C-8.01723162 4.97706238 -8.01685459 4.07961304 -8.01646614 3.15496826 C-7.73294346 -1.40869099 -3.72590826 0.00226393 0 0 Z " fill="#131313" transform="translate(282.890625,192.87060546875)"/>
<path d="M0 0 C24.75 0 49.5 0 75 0 C75 6.93 75 13.86 75 21 C72.56032503 22.21983748 71.00095476 22.12051527 68.27490234 22.11352539 C67.29403656 22.11344986 66.31317078 22.11337433 65.30258179 22.11329651 C64.24108917 22.10813522 63.17959656 22.10297394 62.0859375 22.09765625 C61.00116119 22.0962413 59.91638489 22.09482635 58.79873657 22.09336853 C55.32413 22.08775802 51.84958719 22.07520372 48.375 22.0625 C46.02343843 22.05748635 43.67187585 22.05292321 41.3203125 22.04882812 C35.5468305 22.03863483 29.77348687 22.0190614 24 22 C24 31.24 24 40.48 24 50 C38.19 50 52.38 50 67 50 C67 56.93 67 63.86 67 71 C52.81 71 38.62 71 24 71 C24 81.23 24 91.46 24 102 C40.83 102 57.66 102 75 102 C75 108.93 75 115.86 75 123 C50.25 123 25.5 123 0 123 C0 82.41 0 41.82 0 0 Z " fill="#101010" transform="translate(385,194)"/>
<path d="M0 0 C1.52403442 0.00737183 1.52403442 0.00737183 3.07885742 0.01489258 C17.02492639 0.2328523 29.26872741 3.71626208 39.6875 13.3125 C39.17319295 18.02993704 36.99484975 21.28514039 34.3125 25.0625 C33.91289062 25.65160156 33.51328125 26.24070313 33.1015625 26.84765625 C30.07053103 31.18482299 30.07053103 31.18482299 26.6875 32.3125 C24.48828125 30.984375 24.48828125 30.984375 22 29.0625 C13.83623861 23.14023379 5.57312279 20.46996267 -4.65234375 21.5625 C-7.76622174 22.21194941 -10.17998794 23.22305436 -12.8125 25 C-14.9460339 28.2891981 -14.78522591 30.46316043 -14.3125 34.3125 C-11.33036047 41.06155263 -5.80114247 43.74300962 0.74804688 46.3125 C2.04838867 46.8075 2.04838867 46.8075 3.375 47.3125 C5.08723958 47.97916667 6.79947917 48.64583333 8.51171875 49.3125 C11.13115746 50.32637219 13.75160147 51.3369149 16.37646484 52.33666992 C28.31840842 56.96719682 37.22197174 63.72015983 42.92578125 75.3203125 C46.15070062 83.754717 46.18450224 95.86612471 42.78515625 104.26171875 C38.63807011 112.00983343 33.25502165 116.98421271 25.6875 121.3125 C24.718125 121.89 23.74875 122.4675 22.75 123.0625 C15.19055184 126.14798904 7.33455301 126.65111212 -0.75 126.5625 C-1.67304932 126.55355713 -2.59609863 126.54461426 -3.54711914 126.53540039 C-20.98404835 126.23829371 -33.90079274 120.92439608 -46.3125 108.3125 C-44.68409701 104.91030091 -42.82964616 102.14428943 -40.3125 99.3125 C-39.6525 99.3125 -38.9925 99.3125 -38.3125 99.3125 C-38.065 98.735 -37.8175 98.1575 -37.5625 97.5625 C-36.14566683 95.0122003 -34.43622463 93.29464299 -32.3125 91.3125 C-29.18556875 92.72556513 -26.84971176 94.46195236 -24.25 96.6875 C-15.52940011 103.50180236 -6.27846499 105.65444133 4.6875 104.3125 C9.5158322 103.11343211 13.39881875 101.75738504 16.75 98 C18.28841298 93.5898828 18.91414168 89.89899176 18.25 85.25 C13.26881477 75.88537176 0.74770695 72.27035482 -8.61328125 68.625 C-20.92741432 63.80624969 -31.80821681 58.16019912 -38.0625 45.875 C-41.41699673 36.31468431 -42.51321236 28.8424743 -38.3125 19.3125 C-33.73495562 11.10448939 -27.57816187 4.59887148 -18.37524414 1.70288086 C-12.22177721 0.26604166 -6.30631166 -0.03598838 0 0 Z " fill="#0F0F0F" transform="translate(198.3125,191.6875)"/>
<path d="M0 0 C1.29442017 0.00616333 1.29442017 0.00616333 2.61499023 0.01245117 C4.01974609 0.01535156 4.01974609 0.01535156 5.45288086 0.01831055 C6.43321289 0.03055664 7.41354492 0.04280273 8.42358398 0.05541992 C9.4077832 0.05606445 10.39198242 0.05670898 11.40600586 0.05737305 C18.72090866 0.1027446 18.72090866 0.1027446 19.86108398 1.24291992 C19.9564464 4.40904655 19.98659035 7.5533262 19.97460938 10.71972656 C19.9747554 11.71473679 19.97490143 12.70974701 19.97505188 13.73490906 C19.9743523 17.04098654 19.96655778 20.34700847 19.95874023 23.65307617 C19.95687622 25.93851185 19.95545224 28.22394793 19.95445251 30.50938416 C19.95062606 36.53790379 19.94079468 42.56639951 19.92974854 48.59490967 C19.91774323 55.82103226 19.91313278 63.04716284 19.90729523 70.27329254 C19.897583 81.26318499 19.87842732 92.25302492 19.86108398 103.24291992 C37.35108398 103.24291992 54.84108398 103.24291992 72.86108398 103.24291992 C72.86108398 110.17291992 72.86108398 117.10291992 72.86108398 124.24291992 C62.96918616 124.26547169 53.07730528 124.28383544 43.18538761 124.29473209 C38.59265758 124.29996074 33.99994598 124.30705804 29.40722656 124.31835938 C24.9787471 124.32918892 20.55028542 124.3351969 16.12179375 124.33779716 C14.42842771 124.33965129 12.73506269 124.34327167 11.04170418 124.34864998 C8.67817167 124.35586132 6.31471353 124.35691083 3.95117188 124.35644531 C3.24411102 124.36004059 2.53705017 124.36363586 1.80856323 124.36734009 C-3.02486385 124.35697208 -3.02486385 124.35697208 -4.13891602 123.24291992 C-4.23916409 121.67868707 -4.26967328 120.10993483 -4.27262878 118.54249573 C-4.27689377 117.52589874 -4.28115875 116.50930176 -4.28555298 115.4618988 C-4.28509979 114.33719681 -4.28464661 113.21249481 -4.28417969 112.05371094 C-4.2875383 110.87659546 -4.29089691 109.69947998 -4.2943573 108.48669434 C-4.30225285 105.24910923 -4.30553623 102.01156253 -4.30617309 98.77396894 C-4.30712061 96.07503793 -4.31079711 93.37611314 -4.31434518 90.67718452 C-4.3224972 84.31164197 -4.32492874 77.94611357 -4.32421875 71.58056641 C-4.32361779 65.00552012 -4.33417157 58.43055584 -4.34996241 51.85553032 C-4.36302088 46.21815432 -4.36840336 40.58080517 -4.36776334 34.94341415 C-4.36750785 31.5730873 -4.37038708 28.20283328 -4.38094139 24.83252144 C-4.39068393 21.0754519 -4.387886 17.31859605 -4.38183594 13.56152344 C-4.38745544 12.43884567 -4.39307495 11.31616791 -4.39886475 10.1594696 C-4.39467026 9.1400528 -4.39047577 8.12063599 -4.38615417 7.07032776 C-4.38669894 6.18117455 -4.38724371 5.29202135 -4.38780499 4.37592411 C-4.03302294 1.33540535 -3.04146795 0.34542411 0 0 Z " fill="#141414" transform="translate(497.138916015625,192.757080078125)"/>
<path d="M0 0 C6.6 0 13.2 0 20 0 C18.16006961 5.51979117 16.60761571 10.15709084 14.1015625 15.23828125 C13.26939209 16.9402063 13.26939209 16.9402063 12.42041016 18.67651367 C12.12837708 19.26774017 11.83634399 19.85896667 11.53546143 20.46810913 C9.94827375 23.68339578 8.38117652 26.90846477 6.8125 30.1328125 C6.49100983 30.7927269 6.16951965 31.4526413 5.83828735 32.1325531 C2.68736741 38.61399533 -0.35503673 45.14408853 -3.375 51.6875 C-9.03443419 63.94285951 -14.76936448 76.16114736 -20.53271484 88.36791992 C-24.08015878 95.8864944 -27.582023 103.42129331 -31 111 C-37.6 111 -44.2 111 -51 111 C-49.5899245 106.76977351 -48.18185922 103.04104738 -46.3046875 99.046875 C-45.76191162 97.88784668 -45.21913574 96.72881836 -44.65991211 95.53466797 C-44.0649992 94.27308472 -43.47002672 93.01152957 -42.875 91.75 C-42.25174848 90.42217198 -41.62878937 89.09420667 -41.00610352 87.76611328 C-39.34778325 84.23162687 -37.68523849 80.69914597 -36.0211792 77.1673584 C-35.00864548 75.01834923 -33.9966608 72.86908243 -32.98486328 70.71972656 C-30.29585283 65.00760857 -27.60674988 59.29553473 -24.91601562 53.58422852 C-16.52313786 35.76340148 -8.25159699 17.88662196 0 0 Z " fill="#0D0D0D" transform="translate(1043,5)"/>
<path d="M0 0 C6.6 0 13.2 0 20 0 C16.70472045 8.6883498 12.75516004 17.01486174 8.74993896 25.39123535 C6.71597159 29.64568245 4.69240488 33.90507396 2.66796875 38.1640625 C2.2643512 39.01262817 1.86073364 39.86119385 1.44488525 40.73547363 C-1.95410443 47.88761188 -5.30210167 55.06215523 -8.625 62.25 C-13.27496209 72.29730644 -17.94986498 82.33252328 -22.65496826 92.35412598 C-23.38137954 93.90201645 -24.10701419 95.45027165 -24.83184814 96.99890137 C-25.83890086 99.15001125 -26.84874251 101.29978888 -27.859375 103.44921875 C-28.16287872 104.09878036 -28.46638245 104.74834198 -28.77908325 105.41758728 C-30.88565559 109.88565559 -30.88565559 109.88565559 -32 111 C-33.41570123 111.08651611 -34.835595 111.10704904 -36.25390625 111.09765625 C-37.10791016 111.09443359 -37.96191406 111.09121094 -38.84179688 111.08789062 C-39.73962891 111.07951172 -40.63746094 111.07113281 -41.5625 111.0625 C-42.46419922 111.05798828 -43.36589844 111.05347656 -44.29492188 111.04882812 C-46.53001314 111.03700225 -48.76497437 111.0205222 -51 111 C-50.35762104 106.35133823 -48.48170325 102.43216439 -46.45703125 98.25390625 C-46.09710587 97.49937668 -45.73718048 96.74484711 -45.36634827 95.967453 C-44.59113982 94.34387197 -43.81339904 92.72149809 -43.03338623 91.10021973 C-41.37791729 87.6591815 -39.73457711 84.21239876 -38.09051514 80.76589966 C-37.25492148 79.01452129 -36.41869632 77.26344408 -35.58184814 75.51266479 C-31.96665204 67.94637094 -28.40970658 60.35415747 -24.875 52.75 C-19.69107322 41.61345049 -14.47969489 30.49012872 -9.25 19.375 C-8.89903259 18.62859253 -8.54806519 17.88218506 -8.1864624 17.11315918 C-7.19256731 14.99965893 -6.19797651 12.88648769 -5.203125 10.7734375 C-4.76037735 9.83185287 -4.76037735 9.83185287 -4.3086853 8.87124634 C-2.90625068 5.89503846 -1.47160649 2.94321298 0 0 Z " fill="#0D0D0D" transform="translate(863,397)"/>
<path d="M0 0 C8.58 0 17.16 0 26 0 C26 40.26 26 80.52 26 122 C18.41 122 10.82 122 3 122 C2.67 94.61 2.34 67.22 2 39 C2.99 39 3.98 39 5 39 C5 66.06 5 93.12 5 121 C11.6 121 18.2 121 25 121 C25 81.4 25 41.8 25 1 C12.625 1.495 12.625 1.495 0 2 C0 1.34 0 0.68 0 0 Z " fill="#515151" transform="translate(1582,191)"/>
<path d="M0 0 C0.66 0.33 1.32 0.66 2 1 C1.04882866 2.1725131 0.08882991 3.33787015 -0.875 4.5 C-1.40867188 5.1496875 -1.94234375 5.799375 -2.4921875 6.46875 C-2.98976562 6.9740625 -3.48734375 7.479375 -4 8 C-4.66 8 -5.32 8 -6 8 C-4.55746343 4.63408134 -2.66735273 2.48952921 0 0 Z " fill="#545454" transform="translate(166,283)"/>
</svg>
